# xmcd
#
# Track frame offsets: 
#        150
#        21360
#        45745
#        64230
#        86857
#        104855
#        123237
#        143287
#        160695
#        173547
#        193102
#
# Disc length: 2799 seconds
#
# Revision: 3
# Processed by: cddbd v1.5.1PL0 Copyright (c) Steve Scherf et al.
# Submitted via: ExactAudioCopy v0.90b4
#
DISCID=930aed0b
DTITLE=ELO - Secret Messages
DYEAR=1983
DGENRE=Pop
TTITLE0=Secret Messages
TTITLE1=Loser Gone Wild
TTITLE2=Bluebird
TTITLE3=Take Me On and On
TTITLE4=Time After Time
TTITLE5=Four Little Diamonds
TTITLE6=Stranger
TTITLE7=Danger Ahead
TTITLE8=Letter from Spain
TTITLE9=Train of Gold
TTITLE10=Rock 'n' Roll Is King
EXTD=c 1983 April Music Inc.\nMusic and Lyrics by Jeff Lynne\nProduced
EXTD=by Jeff Lyne
EXTT0=
EXTT1=
EXTT2=
EXTT3=
EXTT4=
EXTT5=
EXTT6=
EXTT7=
EXTT8=
EXTT9=
EXTT10=
PLAYORDER=
